<svg version="1.1" xmlns="http://www.w3.org/2000/svg" xmlns:xlink="http://www.w3.org/1999/xlink" width="48.68995" height="48.68995" viewBox="0,0,48.68995,48.68995"><defs><radialGradient cx="240" cy="180" r="24.34497" gradientUnits="userSpaceOnUse" id="color-1"><stop offset="0" stop-color="#78807d" stop-opacity="0.50196"/><stop offset="1" stop-color="#78807d" stop-opacity="0"/></radialGradient><linearGradient x1="240" y1="168.29098" x2="240" y2="191.70902" gradientUnits="userSpaceOnUse" id="color-2"><stop offset="0" stop-color="#e4f2ee" stop-opacity="0.90196"/><stop offset="1" stop-color="#ffffff" stop-opacity="0.94902"/></linearGradient></defs><g transform="translate(-215.65502,-155.65502)"><g stroke="#000000" stroke-miterlimit="10"><path d="M215.65503,180c0,-13.44537 10.89961,-24.34498 24.34498,-24.34498c13.44537,0 24.34497,10.89961 24.34497,24.34498c0,13.44537 -10.89961,24.34498 -24.34497,24.34498c-13.44537,0 -24.34498,-10.89961 -24.34498,-24.34498z" fill="url(#color-1)" stroke-width="0"/><path d="M221.82315,180c0,-10.0388 8.13805,-18.17685 18.17685,-18.17685c10.0388,0 18.17685,8.13805 18.17685,18.17685c0,10.0388 -8.13805,18.17685 -18.17685,18.17685c-10.0388,0 -18.17685,-8.13805 -18.17685,-18.17685z" fill-opacity="0.25098" fill="#78807d" stroke-width="0"/><path d="M253.93961,180.34791h-4.78205v11.36111h-6.51735v-7.87769h-5.2809v7.87769h-6.51688v-11.36111h-4.78205l13.93985,-12.05694z" fill="url(#color-2)" stroke-width="1"/></g></g></svg>