<svg version="1.1" xmlns="http://www.w3.org/2000/svg" xmlns:xlink="http://www.w3.org/1999/xlink" width="53.54304" height="23.13467" viewBox="0,0,53.54304,23.13467"><g transform="translate(-214.67404,-168.43266)"><g stroke="none" stroke-miterlimit="10"><text transform="translate(241.58983,183.77581) scale(0.31465,0.31465)" font-size="40" xml:space="preserve" fill="#000000" stroke-width="1" font-family="&quot;Noto Sans&quot;, Sans Serif" font-weight="400" text-anchor="start"><tspan x="0" dy="0">Files</tspan></text><path d="M214.67404,191.56734v-23.13467h23.31859v23.13467z" fill="#ffffff" stroke-width="0"/><path d="M220.07917,185.83192c-0.29432,0 -0.55184,-0.11239 -0.77257,-0.33715c-0.22073,-0.22477 -0.3311,-0.47689 -0.3311,-0.75633v-9.47686c0,-0.27945 0.11037,-0.53155 0.3311,-0.75633c0.22073,-0.22477 0.47826,-0.33716 0.77257,-0.33716h5.1505l1.10368,1.09349h6.25416c0.28205,0 0.53651,0.11239 0.76338,0.33715c0.22687,0.22477 0.34031,0.47688 0.34031,0.75633v8.38338c0,0.27945 -0.11344,0.53156 -0.34031,0.75633c-0.22687,0.22477 -0.48133,0.33715 -0.76338,0.33715z" fill="#000000" stroke-width="1"/></g></g></svg>