<svg version="1.1" xmlns="http://www.w3.org/2000/svg" xmlns:xlink="http://www.w3.org/1999/xlink" width="76.17901" height="76.17901" viewBox="0,0,76.17901,76.17901"><g transform="translate(-201.91049,-141.91049)"><g data-paper-data="{&quot;isPaintingLayer&quot;:true}" fill-rule="nonzero" stroke="none" stroke-linecap="butt" stroke-linejoin="miter" stroke-miterlimit="10" stroke-dasharray="" stroke-dashoffset="0" style="mix-blend-mode: normal"><path d="M201.9105,218.08951v-76.17901h76.17901v76.17901z" fill="#ffffff" stroke-width="0"/><path d="M240.25841,195.31695c0.68906,0 1.27044,-0.23686 1.74417,-0.71059c0.47372,-0.47372 0.71059,-1.05511 0.71059,-1.74417c0,-0.68906 -0.23686,-1.27044 -0.71059,-1.74417c-0.47372,-0.47372 -1.05511,-0.71059 -1.74417,-0.71059c-0.68906,0 -1.27044,0.23686 -1.74417,0.71059c-0.47372,0.47372 -0.71059,1.05511 -0.71059,1.74417c0,0.68906 0.23686,1.27044 0.71059,1.74417c0.47372,0.47372 1.05511,0.71059 1.74417,0.71059zM237.99744,185.88553h3.81133c0,-1.11971 0.13997,-2.14253 0.41989,-3.06844c0.27993,-0.92591 1.15201,-1.99179 2.61625,-3.19764c1.33504,-1.11971 2.28249,-2.21789 2.84235,-3.29454c0.55986,-1.07665 0.83978,-2.26096 0.83978,-3.55293c0,-2.28249 -0.74289,-4.11279 -2.22866,-5.4909c-1.48577,-1.3781 -3.45603,-2.06716 -5.91079,-2.06716c-2.11023,0 -3.97282,0.52756 -5.58779,1.58267c-1.61497,1.05511 -2.78852,2.50858 -3.52063,4.36042l3.42373,1.29198c0.47372,-1.20585 1.18431,-2.14253 2.13176,-2.81005c0.94745,-0.66752 2.06716,-1.00128 3.35914,-1.00128c1.46424,0 2.64855,0.39836 3.55293,1.19508c0.90438,0.79672 1.35657,1.81953 1.35657,3.06844c0,0.94745 -0.27993,1.84106 -0.83978,2.68085c-0.55986,0.83978 -1.3781,1.71187 -2.45475,2.61625c-1.29198,1.11971 -2.25019,2.22866 -2.87465,3.32684c-0.62446,1.09818 -0.93668,2.55165 -0.93668,4.36042zM240.00001,206.10494c-3.5314,0 -6.869,-0.67829 -10.01281,-2.03486c-3.14381,-1.35657 -5.88926,-3.20841 -8.23634,-5.55549c-2.34709,-2.34709 -4.19892,-5.09253 -5.55549,-8.23634c-1.35657,-3.14381 -2.03486,-6.48141 -2.03486,-10.01281c0,-3.57446 0.67829,-6.9336 2.03486,-10.07741c1.35657,-3.14381 3.20841,-5.87849 5.55549,-8.20404c2.34709,-2.32556 5.09253,-4.16662 8.23634,-5.52319c3.14381,-1.35657 6.48141,-2.03486 10.01281,-2.03486c3.57446,0 6.9336,0.67829 10.07741,2.03486c3.14381,1.35657 5.87849,3.19764 8.20404,5.52319c2.32556,2.32556 4.16662,5.06023 5.52319,8.20404c1.35657,3.14381 2.03486,6.50294 2.03486,10.07741c0,3.5314 -0.67829,6.869 -2.03486,10.01281c-1.35657,3.14381 -3.19764,5.88926 -5.52319,8.23634c-2.32556,2.34709 -5.06023,4.19892 -8.20404,5.55549c-3.14381,1.35657 -6.50294,2.03486 -10.07741,2.03486z" fill="#000000" stroke-width="1"/></g></g></svg>