<svg version="1.1" xmlns="http://www.w3.org/2000/svg" xmlns:xlink="http://www.w3.org/1999/xlink" width="48" height="48" viewBox="0,0,48,48"><g transform="translate(-216,-156)"><g data-paper-data="{&quot;isPaintingLayer&quot;:true}" fill-rule="nonzero" stroke="none" stroke-width="1" stroke-linecap="butt" stroke-linejoin="miter" stroke-miterlimit="10" stroke-dasharray="" stroke-dashoffset="0" style="mix-blend-mode: normal"><path d="M216,156h48v48h-48z" fill="none"/><path d="M242,164v16c0,1.1 -0.9,2 -2,2c-1.1,0 -2,-0.9 -2,-2v-16c0,-1.1 0.9,-2 2,-2c1.1,0 2,0.9 2,2zM253.16,167.76c3,3.2 4.84,7.48 4.84,12.22c0,10.14 -8.38,18.32 -18.58,18c-9.76,-0.3 -17.7,-8.74 -17.42,-18.5c0.14,-4.54 1.96,-8.64 4.86,-11.72c0.76,-0.82 2.06,-0.84 2.86,-0.04c0.76,0.76 0.76,1.98 0.02,2.76c-2.32,2.5 -3.74,5.84 -3.74,9.52c0,7.8 6.36,14.1 14.18,13.98c7.66,-0.08 14,-6.68 13.82,-14.34c-0.08,-3.54 -1.48,-6.74 -3.74,-9.14c-0.74,-0.78 -0.76,-2 0.02,-2.78c0.8,-0.8 2.12,-0.78 2.88,0.04z" fill="#e8eaed"/></g></g></svg>