<svg version="1.1" xmlns="http://www.w3.org/2000/svg" xmlns:xlink="http://www.w3.org/1999/xlink" width="29.375" height="29.375" viewBox="0,0,29.375,29.375"><g transform="translate(-225.3125,-165.3125)"><g stroke-miterlimit="10"><path d="M225.3125,194.6875v-29.375h29.375v29.375z" fill-opacity="0.01176" fill="#ffffff" stroke="none" stroke-width="0"/><path d="M248.5,172v8h-8v9c0,0.55 -0.45,1 -1,1h-2c-0.55,0 -1,-0.45 -1,-1v-11h10v-4h-1v1c0,0.55 -0.45,1 -1,1h-12c-0.55,0 -1,-0.45 -1,-1v-4c0,-0.55 0.45,-1 1,-1h12c0.55,0 1,0.45 1,1v1z" fill="#ffffff" stroke="#000000" stroke-width="1"/></g></g></svg>