<svg version="1.1" xmlns="http://www.w3.org/2000/svg" xmlns:xlink="http://www.w3.org/1999/xlink" width="24.97145" height="20.5774" viewBox="0,0,24.97145,20.5774"><g transform="translate(-227.51429,-169.7113)"><g data-paper-data="{&quot;isPaintingLayer&quot;:true}" fill-rule="nonzero" stroke-linecap="butt" stroke-linejoin="miter" stroke-miterlimit="10" stroke-dasharray="" stroke-dashoffset="0" style="mix-blend-mode: normal"><path d="M227.51429,188.76828v-17.53655h24.97145v17.53655z" fill="#ffffff" stroke="#000000" stroke-width="0"/><path d="M229.71132,169.7113h20.5774v20.5774h-20.5774z" fill="none" stroke="none" stroke-width="1"/><path d="M238.25586,187.69055l-0.37916,-2.42252c-0.24013,-0.08972 -0.49291,-0.21149 -0.75832,-0.3653c-0.26541,-0.15381 -0.49923,-0.31403 -0.70145,-0.48066l-2.23705,1.03823l-1.7631,-3.15313l2.04747,-1.51889c-0.02528,-0.11536 -0.04108,-0.24674 -0.0474,-0.39414c-0.00632,-0.1474 -0.00948,-0.27878 -0.00948,-0.39414c0,-0.11536 0.00316,-0.24674 0.00948,-0.39414c0.00632,-0.1474 0.02212,-0.27878 0.0474,-0.39414l-2.04747,-1.51889l1.7631,-3.15312l2.23705,1.03823c0.20222,-0.16663 0.43603,-0.32685 0.70145,-0.48066c0.26541,-0.15381 0.51819,-0.26917 0.75832,-0.34608l0.37916,-2.44175h3.48828l0.37916,2.42252c0.24013,0.08972 0.49607,0.20829 0.7678,0.35569c0.27173,0.1474 0.50239,0.31083 0.69197,0.49028l2.23705,-1.03823l1.7631,3.15312l-2.04747,1.48043c0.02528,0.12818 0.04107,0.26597 0.04739,0.41337c0.00632,0.1474 0.00948,0.28519 0.00948,0.41337c0,0.12818 -0.00316,0.26276 -0.00948,0.40376c-0.00632,0.14099 -0.02211,0.27557 -0.04739,0.40375l2.04747,1.49966l-1.7631,3.15313l-2.23705,-1.03823c-0.20222,0.16663 -0.43287,0.33005 -0.69197,0.49027c-0.25909,0.16022 -0.51503,0.27878 -0.7678,0.35569l-0.37916,2.42252zM240,182.49943c0.68249,0 1.26387,-0.24353 1.74414,-0.7306c0.48027,-0.48707 0.72041,-1.07668 0.72041,-1.76883c0,-0.69215 -0.24014,-1.28176 -0.72041,-1.76883c-0.48027,-0.48707 -1.06165,-0.7306 -1.74414,-0.7306c-0.68249,0 -1.26387,0.24353 -1.74414,0.7306c-0.48027,0.48707 -0.72041,1.07668 -0.72041,1.76883c0,0.69215 0.24014,1.28176 0.72041,1.76883c0.48027,0.48707 1.06165,0.7306 1.74414,0.7306z" fill="#000000" stroke="none" stroke-width="1"/></g></g></svg>