<svg version="1.1" xmlns="http://www.w3.org/2000/svg" xmlns:xlink="http://www.w3.org/1999/xlink" width="127.32499" height="127.32499" viewBox="0,0,127.32499,127.32499"><defs><radialGradient cx="240.00005" cy="180.00001" r="63.6625" gradientUnits="userSpaceOnUse" id="color-1"><stop offset="0" stop-color="#808080" stop-opacity="0.50196"/><stop offset="1" stop-color="#808080" stop-opacity="0"/></radialGradient></defs><g transform="translate(-176.33753,-116.3375)"><g stroke="none" stroke-miterlimit="10"><path d="M176.33753,243.66249v-127.32499h127.32499v127.32499z" fill="url(#color-1)" stroke-width="0"/><path d="M271.40675,180.00002c0,17.35223 -14.05452,31.40675 -31.40674,31.40675c-17.35223,0 -31.40674,-14.05452 -31.40674,-31.40674c0,-17.35223 14.05452,-31.40674 31.40675,-31.40674c17.35222,0 31.40675,14.05452 31.40675,31.40675zM228.22248,174.11126c0,6.5169 5.26063,11.77753 11.77753,11.77753c6.5169,0 11.77753,-5.26063 11.77753,-11.77753c0,-6.5169 -5.26063,-11.77753 -11.77753,-11.77753c-6.5169,0 -11.77753,5.26063 -11.77753,11.77753zM259.90405,195.93894c-5.69247,-3.84733 -12.52344,-6.12431 -19.90402,-6.12431c-7.38058,0 -14.21155,2.27699 -19.90402,6.12431c4.71101,5.8495 11.85604,9.57906 19.90402,9.57906c8.04798,0 15.19302,-3.72956 19.90402,-9.57906z" fill="#ffffff" stroke-width="1"/><path d="M240.00003,205.568c-8.04798,0 -15.24282,-3.78388 -19.95383,-9.63338c5.69247,-3.84732 12.57325,-6.16999 19.95383,-6.16999c7.38058,0 14.26136,2.32266 19.95383,6.16999c-4.711,5.8495 -11.90585,9.63338 -19.95383,9.63338z" fill-opacity="0.50196" fill="#808080" stroke-width="0.5"/><path d="M240.00002,162.28372c6.5169,0 11.82753,5.31063 11.82753,11.82753c0,6.5169 -5.31063,11.82753 -11.82753,11.82753c-6.5169,0 -11.82753,-5.31063 -11.82753,-11.82753c0,-6.5169 5.31063,-11.82753 11.82753,-11.82753z" fill-opacity="0.50196" fill="#808080" stroke-width="0.5"/></g></g></svg>