<svg version="1.1" xmlns="http://www.w3.org/2000/svg" xmlns:xlink="http://www.w3.org/1999/xlink" width="48.68995" height="48.68996" viewBox="0,0,48.68995,48.68996"><defs><radialGradient cx="240.00002" cy="180.00002" r="24.34497" gradientUnits="userSpaceOnUse" id="color-1"><stop offset="0" stop-color="#78807d" stop-opacity="0.50196"/><stop offset="1" stop-color="#78807d" stop-opacity="0"/></radialGradient></defs><g transform="translate(-215.65504,-155.65503)"><g stroke="#000000" stroke-miterlimit="10"><path d="M215.65505,180.00002c0,-13.44537 10.89961,-24.34498 24.34498,-24.34498c13.44537,0 24.34497,10.89961 24.34497,24.34498c0,13.44537 -10.89961,24.34498 -24.34497,24.34498c-13.44537,0 -24.34498,-10.89961 -24.34498,-24.34498z" fill="url(#color-1)" stroke-width="0"/><path d="M221.82317,180.00002c0,-10.0388 8.13805,-18.17685 18.17685,-18.17685c10.0388,0 18.17685,8.13805 18.17685,18.17685c0,10.0388 -8.13805,18.17685 -18.17685,18.17685c-10.0388,0 -18.17685,-8.13805 -18.17685,-18.17685z" fill-opacity="0.25098" fill="#78807d" stroke-width="0"/><text transform="translate(231.96002,181.12501) scale(0.5,0.5)" font-size="40" xml:space="preserve" fill-opacity="0.90196" fill="#e4f2ee" stroke-width="1" font-family="&quot;Noto Sans&quot;, Sans Serif" font-weight="normal" text-anchor="start"><tspan x="0" dy="0">...</tspan></text></g></g></svg>