<svg version="1.1" xmlns="http://www.w3.org/2000/svg" xmlns:xlink="http://www.w3.org/1999/xlink" width="424.27695" height="234.66856" viewBox="0,0,424.27695,234.66856"><defs><radialGradient cx="390.68391" cy="150.43725" r="42.80333" gradientUnits="userSpaceOnUse" id="color-1"><stop offset="0" stop-color="#b6f2d5"/><stop offset="1" stop-color="#b6f2d5" stop-opacity="0"/></radialGradient><radialGradient cx="364.97309" cy="190.16631" r="26.44336" gradientUnits="userSpaceOnUse" id="color-2"><stop offset="0" stop-color="#bfffe0"/><stop offset="1" stop-color="#bfffe0" stop-opacity="0"/></radialGradient></defs><g transform="translate(-27.86157,-61.59162)"><g stroke-miterlimit="10"><path d="M28.61157,295.51018v-231.02036h422.77695v231.02036z" fill="#ffffff" stroke="#000000" stroke-width="1.5"/><text transform="translate(32.07357,83.34162) scale(0.5,0.5)" font-size="40" xml:space="preserve" fill="#000000" stroke="none" stroke-width="1" font-family="&quot;Noto Sans&quot;, Sans Serif" font-weight="normal" text-anchor="start"><tspan x="0" dy="0">About...</tspan></text><path d="M28.51701,89.41147v-1.50684h422.87165v1.50684z" fill="#000000" stroke="none" stroke-width="0"/><path d="M61.43738,88.88352v207.05497h-2.07423v-207.05497z" fill="#000000" stroke="none" stroke-width="0"/><text transform="translate(69.061,111.79673) scale(0.48592,0.48592)" font-size="40" xml:space="preserve" fill="#000000" stroke="none" stroke-width="1" font-family="&quot;Noto Sans&quot;, Sans Serif" font-weight="normal" text-anchor="start"><tspan x="0" dy="0">PitOS Enlightment prewiev</tspan></text><text transform="translate(70.03624,129.98004) scale(0.3544,0.35439)" font-size="40" xml:space="preserve" fill="#000000" stroke="none" stroke-width="1" font-family="&quot;Noto Sans&quot;, Sans Serif" font-weight="normal" text-anchor="start"><tspan x="0" dy="0">Build E.M1D1 (prewiev)</tspan><tspan x="0" dy="48px">Relase Date 31.03.2025</tspan></text><path d="M320.36172,89.00668v205.93181h-2.32344v-205.93181z" fill="#000000" stroke="none" stroke-width="0"/><text transform="translate(343.60237,280.54458) scale(0.37867,0.37867)" font-size="40" xml:space="preserve" fill="#545454" stroke="none" stroke-width="1" font-family="&quot;Noto Sans&quot;, Sans Serif" font-weight="400" text-anchor="start"><tspan x="0" dy="0">Enlightment</tspan></text><path d="M347.88058,150.43725c0,-23.63962 19.1637,-42.80333 42.80333,-42.80333c23.63962,0 42.80333,19.1637 42.80333,42.80333c0,23.63962 -19.1637,42.80333 -42.80333,42.80333c-23.63962,0 -42.80333,-19.1637 -42.80333,-42.80333z" fill="url(#color-1)" stroke="none" stroke-width="0"/><path d="M338.52973,190.16631c0,-14.60426 11.8391,-26.44336 26.44336,-26.44336c14.60426,0 26.44336,11.8391 26.44336,26.44336c0,14.60426 -11.8391,26.44336 -26.44336,26.44336c-14.60426,0 -26.44336,-11.8391 -26.44336,-26.44336z" fill="url(#color-2)" stroke="none" stroke-width="0"/></g></g></svg>