<svg version="1.1" xmlns="http://www.w3.org/2000/svg" xmlns:xlink="http://www.w3.org/1999/xlink" width="24.97145" height="20.5774" viewBox="0,0,24.97145,20.5774"><g transform="translate(-227.51428,-169.7113)"><g data-paper-data="{&quot;isPaintingLayer&quot;:true}" fill-rule="nonzero" stroke-linecap="butt" stroke-linejoin="miter" stroke-miterlimit="10" stroke-dasharray="" stroke-dashoffset="0" style="mix-blend-mode: normal"><path d="M227.51429,188.76828v-17.53655h24.97145v17.53655z" fill="#ffffff" stroke="#000000" stroke-width="0"/><path d="M229.71131,169.7113h20.5774v20.5774h-20.5774z" fill="none" stroke="none" stroke-width="1"/><path d="M233.7061,186.08648c-0.29618,0 -0.55535,-0.11729 -0.77748,-0.35187c-0.22214,-0.23458 -0.33321,-0.4977 -0.33321,-0.78934v-9.89052c0,-0.29164 0.11107,-0.55476 0.33321,-0.78934c0.22214,-0.23458 0.4813,-0.35187 0.77748,-0.35187h5.18321l1.11069,1.14122h6.2939c0.28384,0 0.53992,0.11729 0.76823,0.35187c0.22831,0.23458 0.34246,0.4977 0.34246,0.78934v8.74931c0,0.29164 -0.11415,0.55476 -0.34246,0.78934c-0.22831,0.23458 -0.48438,0.35187 -0.76823,0.35187z" fill="#000000" stroke="none" stroke-width="1"/></g></g></svg>