<svg version="1.1" xmlns="http://www.w3.org/2000/svg" xmlns:xlink="http://www.w3.org/1999/xlink" width="400.98525" height="285.74254" viewBox="0,0,400.98525,285.74254"><defs><radialGradient cx="393.57952" cy="186.94541" r="64.88622" gradientUnits="userSpaceOnUse" id="color-1"><stop offset="0" stop-color="#b6f2d5"/><stop offset="1" stop-color="#b6f2d5" stop-opacity="0"/></radialGradient><radialGradient cx="354.6041" cy="247.17129" r="40.08589" gradientUnits="userSpaceOnUse" id="color-2"><stop offset="0" stop-color="#bfffe0"/><stop offset="1" stop-color="#bfffe0" stop-opacity="0"/></radialGradient></defs><g transform="translate(-57.48048,-33.96094)"><g stroke="none" stroke-miterlimit="10"><text transform="translate(57.78688,60.61739) scale(0.61279,0.61279)" font-size="40" xml:space="preserve" fill="#000000" stroke-width="1" font-family="&quot;Noto Sans&quot;, Sans Serif" font-weight="normal" text-anchor="start"><tspan x="0" dy="0">PitOS Enlightment prewiev</tspan></text><text transform="translate(59.01675,83.54831) scale(0.44693,0.44692)" font-size="40" xml:space="preserve" fill="#000000" stroke-width="1" font-family="&quot;Noto Sans&quot;, Sans Serif" font-weight="normal" text-anchor="start"><tspan x="0" dy="0">Build E.M1D2 (prewiev)</tspan><tspan x="0" dy="48px">Relase Date 17.04.2025</tspan></text><text transform="translate(334.87085,314.20463) scale(0.43991,0.43991)" font-size="40" xml:space="preserve" fill="#545454" stroke-width="1" font-family="&quot;Noto Sans&quot;, Sans Serif" font-weight="400" text-anchor="start"><tspan x="0" dy="0">Enlightment</tspan></text><path d="M328.6933,186.94541c0,-35.83566 29.05054,-64.88622 64.88622,-64.88622c35.83566,0 64.88622,29.05054 64.88622,64.88622c0,35.83566 -29.05054,64.88622 -64.88622,64.88622c-35.83566,0 -64.88622,-29.05054 -64.88622,-64.88622z" fill="url(#color-1)" stroke-width="0"/><path d="M314.51821,247.17129c0,-22.13882 17.94707,-40.08589 40.08589,-40.08589c22.13882,0 40.08589,17.94707 40.08589,40.08589c0,22.13882 -17.94707,40.08589 -40.08589,40.08589c-22.13882,0 -40.08589,-17.94707 -40.08589,-40.08589z" fill="url(#color-2)" stroke-width="0"/></g></g></svg>