<svg version="1.1" xmlns="http://www.w3.org/2000/svg" xmlns:xlink="http://www.w3.org/1999/xlink" width="69.78756" height="71.75983" viewBox="0,0,69.78756,71.75983"><defs><linearGradient x1="240" y1="164.13769" x2="240" y2="195.86234" gradientUnits="userSpaceOnUse" id="color-1"><stop offset="0" stop-color="#1d2f2c"/><stop offset="1" stop-color="#ffffff"/></linearGradient></defs><g transform="translate(-205.10622,-144.12014)"><g stroke-miterlimit="10"><path d="M205.85622,215.12997v-70.25983h68.28756v70.25983z" fill="#ffffff" stroke="#000000" stroke-width="1.5"/><text transform="translate(217.76741,210.66333) scale(0.29215,0.29215)" font-size="40" xml:space="preserve" fill="#000000" stroke="none" stroke-width="1" font-family="&quot;Noto Sans&quot;, Sans Serif" font-weight="normal" text-anchor="start"><tspan x="0" dy="0">Settings</tspan></text><path d="M236.40259,195.86234l-0.78205,-4.99663c-0.49529,-0.18506 -1.01667,-0.43622 -1.5641,-0.75345c-0.54743,-0.31725 -1.02969,-0.64772 -1.44678,-0.9914l-4.61408,2.14142l-3.63652,-6.50356l4.22306,-3.13281c-0.05213,-0.23793 -0.08472,-0.50892 -0.09776,-0.81295c-0.01304,-0.30403 -0.01955,-0.57501 -0.01955,-0.81294c0,-0.23793 0.00652,-0.50891 0.01955,-0.81294c0.01304,-0.30403 0.04562,-0.57501 0.09776,-0.81294l-4.22306,-3.13282l3.63652,-6.50355l4.61408,2.14142c0.41709,-0.34368 0.89935,-0.67416 1.44678,-0.99141c0.54743,-0.31725 1.0688,-0.55518 1.5641,-0.71381l0.78205,-5.03628h7.19483l0.78205,4.99663c0.49529,0.18506 1.02318,0.4296 1.58365,0.73363c0.56046,0.30403 1.0362,0.64111 1.42723,1.01123l4.61407,-2.14142l3.63652,6.50355l-4.22306,3.0535c0.05214,0.26438 0.08472,0.54857 0.09776,0.8526c0.01304,0.30403 0.01956,0.58823 0.01956,0.8526c0,0.26438 -0.00652,0.54197 -0.01956,0.83277c-0.01303,0.29081 -0.04561,0.56839 -0.09776,0.83277l4.22306,3.09316l-3.63652,6.50356l-4.61407,-2.14142c-0.41709,0.34368 -0.89283,0.68076 -1.42723,1.01123c-0.5344,0.33047 -1.06228,0.57501 -1.58365,0.73363l-0.78205,4.99663zM240,185.15526c1.40768,0 2.60682,-0.50231 3.59742,-1.50692c0.9906,-1.00462 1.48589,-2.22073 1.48589,-3.64834c0,-1.42761 -0.4953,-2.64372 -1.48589,-3.64834c-0.9906,-1.00462 -2.18974,-1.50691 -3.59742,-1.50691c-1.40768,0 -2.60683,0.5023 -3.59741,1.50691c-0.9906,1.00462 -1.48589,2.22073 -1.48589,3.64834c0,1.42761 0.4953,2.64372 1.48589,3.64834c0.9906,1.00462 2.18973,1.50692 3.59741,1.50692z" fill="url(#color-1)" stroke="#000000" stroke-width="1"/></g></g></svg>