<svg version="1.1" xmlns="http://www.w3.org/2000/svg" xmlns:xlink="http://www.w3.org/1999/xlink" width="48.68995" height="48.68996" viewBox="0,0,48.68995,48.68996"><defs><radialGradient cx="240.00001" cy="180.00001" r="24.34497" gradientUnits="userSpaceOnUse" id="color-1"><stop offset="0" stop-color="#78807d" stop-opacity="0.50196"/><stop offset="1" stop-color="#78807d" stop-opacity="0"/></radialGradient></defs><g transform="translate(-215.65503,-155.65502)"><g stroke="#000000" stroke-miterlimit="10"><path d="M215.65504,180.00001c0,-13.44537 10.89961,-24.34498 24.34498,-24.34498c13.44537,0 24.34497,10.89961 24.34497,24.34498c0,13.44537 -10.89961,24.34498 -24.34497,24.34498c-13.44537,0 -24.34498,-10.89961 -24.34498,-24.34498z" fill="url(#color-1)" stroke-width="0"/><path d="M221.82316,180.00001c0,-10.0388 8.13805,-18.17685 18.17685,-18.17685c10.0388,0 18.17685,8.13805 18.17685,18.17685c0,10.0388 -8.13805,18.17685 -18.17685,18.17685c-10.0388,0 -18.17685,-8.13805 -18.17685,-18.17685z" fill-opacity="0.25098" fill="#78807d" stroke-width="0"/><path d="M248.5,172v8h-8v9c0,0.55 -0.45,1 -1,1h-2c-0.55,0 -1,-0.45 -1,-1v-11h10v-4h-1v1c0,0.55 -0.45,1 -1,1h-12c-0.55,0 -1,-0.45 -1,-1v-4c0,-0.55 0.45,-1 1,-1h12c0.55,0 1,0.45 1,1v1z" fill="#ffffff" stroke-width="1"/></g></g></svg>