<svg version="1.1" xmlns="http://www.w3.org/2000/svg" xmlns:xlink="http://www.w3.org/1999/xlink" width="63.00136" height="63.00136" viewBox="0,0,63.00136,63.00136"><g transform="translate(-208.49932,-148.49932)"><g stroke="none" stroke-miterlimit="10"><path d="M208.49932,211.50068v-63.00136h63.00136v63.00136z" fill-opacity="0.01176" fill="#ffffff" stroke-width="0"/><path d="M227.72633,199.8267c-0.78678,0 -1.45553,-0.27536 -2.00627,-0.82611c-0.55075,-0.55075 -0.82611,-1.21949 -0.82611,-2.00627v-20.48759c0,-0.78678 0.27536,-1.45553 0.82611,-2.00627c0.55075,-0.55075 1.21949,-0.82611 2.00627,-0.82611h3.30445v-4.53182c0,-2.4862 0.87332,-4.60263 2.61996,-6.34927c1.74664,-1.74664 3.86306,-2.61996 6.34927,-2.61996c2.4862,0 4.60263,0.87332 6.34927,2.61996c1.74664,1.74664 2.61996,3.86306 2.61996,6.34927v4.53182h3.30445c0.78678,0 1.45553,0.27536 2.00627,0.82611c0.55075,0.55075 0.82611,1.21949 0.82611,2.00627v20.48759c0,0.78678 -0.27536,1.45553 -0.82611,2.00627c-0.55075,0.55075 -1.21949,0.82611 -2.00627,0.82611zM240,190.38542c1.00707,0 1.86465,-0.34617 2.57275,-1.03854c0.7081,-0.69237 1.06214,-1.52634 1.06214,-2.50194c0,-0.94413 -0.35405,-1.80171 -1.06214,-2.57275c-0.7081,-0.77104 -1.56568,-1.15656 -2.57275,-1.15656c-1.00707,0 -1.86465,0.38552 -2.57275,1.15656c-0.7081,0.77104 -1.06214,1.62862 -1.06214,2.57275c0,0.9756 0.35405,1.80957 1.06214,2.50194c0.7081,0.69237 1.56568,1.03854 2.57275,1.03854zM233.86316,173.67434h12.27367v-4.53182c0,-1.69943 -0.59795,-3.1471 -1.79384,-4.34299c-1.19589,-1.19589 -2.64356,-1.79384 -4.34299,-1.79384c-1.69943,0 -3.1471,0.59795 -4.34299,1.79384c-1.19589,1.19589 -1.79384,2.64356 -1.79384,4.34299z" fill="#000000" stroke-width="1"/></g></g></svg>