<svg version="1.1" xmlns="http://www.w3.org/2000/svg" xmlns:xlink="http://www.w3.org/1999/xlink" width="72.22427" height="23.34285" viewBox="0,0,72.22427,23.34285"><g transform="translate(-214.67024,-168.32857)"><g stroke="none" stroke-miterlimit="10"><path d="M214.67024,191.67143v-23.34285h23.65953v23.34285z" fill="#ffffff" stroke-width="0"/><path d="M223.49609,185.94676h-2.86225c-0.30943,0 -0.58019,-0.11127 -0.81226,-0.33381c-0.23207,-0.22254 -0.3481,-0.48217 -0.3481,-0.77889v-5.56349c0,-0.92725 0.18373,-1.79577 0.55118,-2.60557c0.36745,-0.8098 0.86382,-1.51451 1.48913,-2.11413c0.6253,-0.59962 1.36021,-1.07561 2.2047,-1.42797c0.84449,-0.35235 1.75023,-0.52853 2.7172,-0.52853c0.96697,0 1.87269,0.17618 2.71719,0.52853c0.84449,0.35235 1.57939,0.82834 2.2047,1.42797c0.6253,0.59962 1.12168,1.30433 1.48913,2.11413c0.36745,0.8098 0.55117,1.67832 0.55117,2.60557v5.56349c0,0.29672 -0.11603,0.55634 -0.34811,0.77889c-0.23207,0.22254 -0.50283,0.33381 -0.81226,0.33381h-2.86223v-5.48931h2.86223v-1.18687c0,-1.54541 -0.56407,-2.85903 -1.6922,-3.94081c-1.12813,-1.08179 -2.49801,-1.62268 -4.10962,-1.62268c-1.61162,0 -2.98149,0.5409 -4.10962,1.62268c-1.12813,1.08179 -1.69221,2.3954 -1.69221,3.94081v1.18687h2.86223z" fill="#000000" stroke-width="1"/><text transform="translate(241.58983,183.77582) scale(0.31465,0.31465)" font-size="40" xml:space="preserve" fill="#000000" stroke-width="1" font-family="&quot;Noto Sans&quot;, Sans Serif" font-weight="400" text-anchor="start"><tspan x="0" dy="0">Campla</tspan></text></g></g></svg>