<svg version="1.1" xmlns="http://www.w3.org/2000/svg" xmlns:xlink="http://www.w3.org/1999/xlink" width="63.84538" height="33.22001" viewBox="0,0,63.84538,33.22001"><g transform="translate(-208.07731,-163.39002)"><g stroke-miterlimit="10"><path d="M271.92269,166.99441v26.01192c0,1.98724 -1.76506,3.6037 -3.93743,3.6037h-55.97128c-2.1701,0 -3.93667,-1.61646 -3.93667,-3.6037v-26.01261c0,-1.98724 1.76657,-3.6037 3.93667,-3.6037h55.97128c2.17237,0 3.93743,1.61716 3.93743,3.6044z" fill-opacity="0.74902" fill="#cccccc" stroke="none" stroke-width="1"/><path d="M218.8825,183.19084c-1.79429,0 -3.24884,-1.42858 -3.24884,-3.19083c0,-1.76225 1.45456,-3.19083 3.24884,-3.19083h42.23499c1.79429,0 3.24884,1.42858 3.24884,3.19083c0,1.76225 -1.45456,3.19083 -3.24884,3.19083z" fill="#000000" stroke="#000000" stroke-width="0"/></g></g></svg>