<svg version="1.1" xmlns="http://www.w3.org/2000/svg" xmlns:xlink="http://www.w3.org/1999/xlink" width="68.28756" height="70.25983" viewBox="0,0,68.28756,70.25983"><g transform="translate(-205.85622,-144.87008)"><g data-paper-data="{&quot;isPaintingLayer&quot;:true}" fill-rule="nonzero" stroke="none" stroke-linecap="butt" stroke-linejoin="miter" stroke-miterlimit="10" stroke-dasharray="" stroke-dashoffset="0" style="mix-blend-mode: normal"><path d="M205.85622,215.12992v-70.25983h68.28756v70.25983z" fill="#ffffff" stroke-width="0"/><path d="M238.60062,190.66828h3v-12h-3zM239.95062,174.96827c0.46667,0 0.85833,-0.15 1.175,-0.45c0.31667,-0.3 0.475,-0.68333 0.475,-1.15c0,-0.46667 -0.15833,-0.86667 -0.475,-1.2c-0.31667,-0.33333 -0.70833,-0.5 -1.175,-0.5c-0.46667,0 -0.85833,0.16667 -1.175,0.5c-0.31667,0.33333 -0.475,0.73333 -0.475,1.2c0,0.46667 0.15833,0.85 0.475,1.15c0.31667,0.3 0.70833,0.45 1.175,0.45zM239.95062,200.66828c-2.73333,0 -5.31667,-0.525 -7.75,-1.575c-2.43333,-1.05 -4.55833,-2.48333 -6.375,-4.3c-1.81667,-1.81667 -3.25,-3.94167 -4.3,-6.375c-1.05,-2.43333 -1.575,-5.03333 -1.575,-7.8c0,-2.73333 0.525,-5.31667 1.575,-7.75c1.05,-2.43333 2.48333,-4.55 4.3,-6.35c1.81667,-1.8 3.94167,-3.225 6.375,-4.275c2.43333,-1.05 5.03333,-1.575 7.8,-1.575c2.73333,0 5.31667,0.525 7.75,1.575c2.43333,1.05 4.55,2.475 6.35,4.275c1.8,1.8 3.225,3.91667 4.275,6.35c1.05,2.43333 1.575,5.03333 1.575,7.8c0,2.73333 -0.525,5.31667 -1.575,7.75c-1.05,2.43333 -2.475,4.55833 -4.275,6.375c-1.8,1.81667 -3.91667,3.25 -6.35,4.3c-2.43333,1.05 -5.03333,1.575 -7.8,1.575z" fill="#000000" stroke-width="1"/></g></g></svg>