<svg version="1.1" xmlns="http://www.w3.org/2000/svg" xmlns:xlink="http://www.w3.org/1999/xlink" width="76.17901" height="76.42875" viewBox="0,0,76.17901,76.42875"><g transform="translate(-201.91049,-141.78562)"><g data-paper-data="{&quot;isPaintingLayer&quot;:true}" fill-rule="nonzero" stroke="none" stroke-linecap="butt" stroke-linejoin="miter" stroke-miterlimit="10" stroke-dasharray="" stroke-dashoffset="0" style="mix-blend-mode: normal"><path d="M201.9105,218.21438v-76.42875h76.17901v76.42875z" fill="#ffffff" stroke-width="0"/><path d="M234.1056,205.14372l-1.23459,-7.88799c-0.7819,-0.29214 -1.60497,-0.68864 -2.46918,-1.18945c-0.86421,-0.50082 -1.62554,-1.02252 -2.28398,-1.56508l-7.28407,3.38057l-5.74083,-10.26691l6.66677,-4.94565c-0.0823,-0.37562 -0.13375,-0.80341 -0.15433,-1.28337c-0.02058,-0.47996 -0.03086,-0.90774 -0.03086,-1.28336c0,-0.37562 0.01028,-0.8034 0.03086,-1.28336c0.02058,-0.47996 0.07202,-0.90774 0.15433,-1.28336l-6.66677,-4.94566l5.74083,-10.2669l7.28407,3.38057c0.65845,-0.54256 1.41977,-1.06426 2.28398,-1.56509c0.86421,-0.50082 1.68727,-0.87644 2.46918,-1.12686l1.23459,-7.95059h11.3582l1.23459,7.88799c0.7819,0.29214 1.61525,0.6782 2.50004,1.15816c0.88478,0.47996 1.63582,1.01209 2.25312,1.59639l7.28406,-3.38057l5.74083,10.2669l-6.66677,4.82044c0.08231,0.41736 0.13374,0.86601 0.15432,1.34597c0.02058,0.47996 0.03087,0.92861 0.03087,1.34597c0,0.41736 -0.01029,0.85558 -0.03087,1.31467c-0.02058,0.45909 -0.072,0.8973 -0.15432,1.31466l6.66677,4.88305l-5.74083,10.26691l-7.28406,-3.38057c-0.65845,0.54256 -1.40948,1.07468 -2.25312,1.59638c-0.84364,0.5217 -1.67698,0.90774 -2.50004,1.15816l-1.23459,7.88799zM239.78469,188.24088c2.22225,0 4.11529,-0.79297 5.6791,-2.37892c1.56381,-1.58595 2.34572,-3.50578 2.34572,-5.75949c0,-2.25371 -0.78191,-4.17354 -2.34572,-5.75949c-1.56381,-1.58595 -3.45685,-2.37891 -5.6791,-2.37891c-2.22225,0 -4.1153,0.79296 -5.6791,2.37891c-1.56381,1.58595 -2.34572,3.50578 -2.34572,5.75949c0,2.25371 0.78191,4.17354 2.34572,5.75949c1.56381,1.58595 3.45685,2.37892 5.6791,2.37892z" fill="#000000" stroke-width="1"/></g></g></svg>