<svg version="1.1" xmlns="http://www.w3.org/2000/svg" xmlns:xlink="http://www.w3.org/1999/xlink" width="44.25183" height="43.96627" viewBox="0,0,44.25183,43.96627"><g transform="translate(-216.64691,-157.98538)"><g stroke-miterlimit="10"><path d="M230.12325,201.95037c-18.01477,-0.05661 -17.92208,-43.87533 0,-43.96499c30.76884,0.00617 30.77549,0 30.77549,0v43.96499c0,0 0.00084,0.00288 -30.77549,0z" fill-opacity="0.50196" fill="#b4bfbc" stroke="none" stroke-width="0"/><path d="M248.5,172v8h-8v9c0,0.55 -0.45,1 -1,1h-2c-0.55,0 -1,-0.45 -1,-1v-11h10v-4h-1v1c0,0.55 -0.45,1 -1,1h-12c-0.55,0 -1,-0.45 -1,-1v-4c0,-0.55 0.45,-1 1,-1h12c0.55,0 1,0.45 1,1v1z" fill="#ffffff" stroke="#000000" stroke-width="1"/></g></g></svg>