<svg version="1.1" xmlns="http://www.w3.org/2000/svg" xmlns:xlink="http://www.w3.org/1999/xlink" width="31.59284" height="31.59284" viewBox="0,0,31.59284,31.59284"><g transform="translate(-224.20358,-164.20358)"><g data-paper-data="{&quot;isPaintingLayer&quot;:true}" fill-rule="nonzero" stroke="none" stroke-linecap="butt" stroke-linejoin="miter" stroke-miterlimit="10" stroke-dasharray="" stroke-dashoffset="0" style="mix-blend-mode: normal"><path d="M224.20358,195.79642v-31.59284h31.59284v31.59284z" fill="#ffffff" stroke-width="0"/><path d="M239.16685,181.1942v-11.2755h1.66633v11.2755zM240.00001,190.0813c-1.37009,0 -2.6615,-0.26384 -3.87422,-0.79151c-1.21272,-0.52767 -2.27269,-1.24512 -3.17991,-2.15234c-0.90722,-0.90722 -1.62467,-1.9672 -2.15234,-3.17991c-0.52767,-1.21272 -0.79151,-2.50412 -0.79151,-3.87422c0,-1.48118 0.31475,-2.86516 0.94425,-4.15194c0.6295,-1.28678 1.51821,-2.43006 2.66613,-3.42986l1.16643,1.16643c-0.98128,0.79613 -1.74502,1.74502 -2.2912,2.84665c-0.54619,1.10163 -0.81928,2.2912 -0.81928,3.56872c0,2.31435 0.81002,4.28154 2.43006,5.90159c1.62005,1.62005 3.58724,2.43006 5.90159,2.43006c2.31435,0 4.28154,-0.81002 5.90159,-2.43006c1.62005,-1.62005 2.43006,-3.58724 2.43006,-5.90159c0,-1.27752 -0.2731,-2.47635 -0.81928,-3.59649c-0.54619,-1.12014 -1.29141,-2.05977 -2.23566,-2.81888l1.1942,-1.16643c1.11088,0.94425 1.97645,2.07365 2.5967,3.3882c0.62025,1.31455 0.93037,2.71242 0.93037,4.1936c0,1.37009 -0.26384,2.6615 -0.79151,3.87422c-0.52767,1.21272 -1.24049,2.27269 -2.13846,3.17991c-0.89797,0.90722 -1.95331,1.62467 -3.16603,2.15234c-1.21272,0.52767 -2.51338,0.79151 -3.90199,0.79151z" fill="#000000" stroke-width="1"/></g></g></svg>