<svg version="1.1" xmlns="http://www.w3.org/2000/svg" xmlns:xlink="http://www.w3.org/1999/xlink" width="68.28756" height="70.25983" viewBox="0,0,68.28756,70.25983"><g transform="translate(-205.85622,-144.87008)"><g data-paper-data="{&quot;isPaintingLayer&quot;:true}" fill-rule="nonzero" stroke="none" stroke-linecap="butt" stroke-linejoin="miter" stroke-miterlimit="10" stroke-dasharray="" stroke-dashoffset="0" style="mix-blend-mode: normal"><path d="M205.85622,215.12992v-70.25983h68.28756v70.25983z" fill="#ffffff" stroke-width="0"/><path d="M221.68493,197.71149c-0.86189,0 -1.61604,-0.34132 -2.26245,-1.02394c-0.64641,-0.68263 -0.96962,-1.44829 -0.96962,-2.29696v-28.78115c0,-0.84867 0.32321,-1.61433 0.96962,-2.29696c0.64641,-0.68263 1.40057,-1.02394 2.26245,-1.02394h15.083l3.23207,3.32091h18.31507c0.82598,0 1.57115,0.34132 2.23552,1.02394c0.66437,0.68263 0.99656,1.44828 0.99656,2.29695v25.46025c0,0.84867 -0.33218,1.61433 -0.99656,2.29696c-0.66437,0.68263 -1.40954,1.02394 -2.23552,1.02394z" fill="#000000" stroke-width="1"/></g></g></svg>