<svg version="1.1" xmlns="http://www.w3.org/2000/svg" xmlns:xlink="http://www.w3.org/1999/xlink" width="479.28756" height="363.30329" viewBox="0,0,479.28756,363.30329"><defs><linearGradient x1="240" y1="125.04135" x2="240" y2="234.95865" gradientUnits="userSpaceOnUse" id="color-1"><stop offset="0" stop-color="#1d2f2c"/><stop offset="1" stop-color="#ffffff"/></linearGradient></defs><g transform="translate(-0.35622,1.65165)"><g stroke="#000000" stroke-miterlimit="10"><path d="M0.35622,361.65164v-363.30329h479.28756v363.30329z" fill="#ffffff" stroke-width="0"/><path d="M227.53595,234.95865l-2.70959,-17.31197c-1.71605,-0.64118 -3.52249,-1.51138 -5.41918,-2.6105c-1.8967,-1.09919 -3.5676,-2.24417 -5.0127,-3.43493l-15.98654,7.41944l-12.59956,-22.53307l14.63176,-10.85434c-0.18062,-0.82436 -0.29353,-1.76327 -0.33871,-2.81665c-0.04518,-1.05338 -0.06774,-1.99225 -0.06774,-2.81662c0,-0.82436 0.02259,-1.76324 0.06774,-2.81662c0.04518,-1.05338 0.15806,-1.99225 0.33871,-2.81662l-14.63176,-10.85437l12.59956,-22.53304l15.98654,7.41944c1.4451,-1.19076 3.116,-2.33578 5.0127,-3.43497c1.8967,-1.09919 3.7031,-1.92355 5.41918,-2.47316l2.70959,-17.44934h24.92813l2.70959,17.31197c1.71605,0.64118 3.54504,1.48845 5.48692,2.54183c1.94184,1.05338 3.59015,2.22127 4.94496,3.50364l15.9865,-7.41944l12.59956,22.53304l-14.63176,10.57955c0.18065,0.916 0.29353,1.90065 0.33871,2.95403c0.04518,1.05338 0.06777,2.03806 0.06777,2.95403c0,0.916 -0.02259,1.87778 -0.06777,2.88532c-0.04515,1.00758 -0.15803,1.96932 -0.33871,2.88532l14.63176,10.71696l-12.59956,22.53307l-15.9865,-7.41944c-1.4451,1.19076 -3.09341,2.35865 -4.94496,3.50364c-1.85155,1.14499 -3.68051,1.99225 -5.48692,2.54183l-2.70959,17.31197zM240,197.86153c4.87723,0 9.03192,-1.74037 12.46408,-5.22107c3.43216,-3.48074 5.14821,-7.69423 5.14821,-12.64051c0,-4.94628 -1.71608,-9.15977 -5.14821,-12.64051c-3.43216,-3.48074 -7.58686,-5.22103 -12.46408,-5.22103c-4.87723,0 -9.03196,1.74033 -12.46405,5.22103c-3.43216,3.48074 -5.14821,7.69423 -5.14821,12.64051c0,4.94628 1.71608,9.15977 5.14821,12.64051c3.43216,3.48074 7.58682,5.22107 12.46405,5.22107z" fill="url(#color-1)" stroke-width="2"/></g></g></svg>