<svg version="1.1" xmlns="http://www.w3.org/2000/svg" xmlns:xlink="http://www.w3.org/1999/xlink" width="63.46784" height="63.46784" viewBox="0,0,63.46784,63.46784"><g transform="translate(-208.26608,-148.26608)"><g stroke="none" stroke-miterlimit="10"><path d="M208.26608,211.73392v-63.46784h63.46784v63.46784z" fill-opacity="0.01176" fill="#ffffff" stroke-width="0"/><path d="M238.32625,182.39907v-22.6517h3.34754v22.6517zM240.00002,200.25263c-2.75242,0 -5.34677,-0.53003 -7.78304,-1.59008c-2.43627,-1.06006 -4.56568,-2.50136 -6.38823,-4.32391c-1.82255,-1.82255 -3.26385,-3.95196 -4.32391,-6.38823c-1.06006,-2.43627 -1.59008,-5.03061 -1.59008,-7.78304c0,-2.97559 0.63231,-5.75591 1.89694,-8.34096c1.26463,-2.58505 3.04998,-4.88183 5.35607,-6.89036l2.34328,2.34328c-1.97133,1.59938 -3.50562,3.50562 -4.60287,5.71872c-1.09725,2.2131 -1.64588,4.60287 -1.64588,7.16932c0,4.64936 1.62728,8.60132 4.88183,11.85588c3.25456,3.25456 7.20651,4.88183 11.85588,4.88183c4.64936,0 8.60132,-1.62728 11.85588,-4.88183c3.25456,-3.25456 4.88183,-7.20651 4.88183,-11.85588c0,-2.56645 -0.54863,-4.97482 -1.64588,-7.22511c-1.09725,-2.25029 -2.59435,-4.13793 -4.49129,-5.66293l2.39907,-2.34328c2.23169,1.89694 3.97056,4.16583 5.21659,6.80667c1.24603,2.64084 1.86904,5.44906 1.86904,8.42465c0,2.75242 -0.53003,5.34677 -1.59008,7.78304c-1.06006,2.43627 -2.49206,4.56568 -4.29601,6.38823c-1.80395,1.82255 -3.92406,3.26385 -6.36033,4.32391c-2.43627,1.06006 -5.04921,1.59008 -7.83883,1.59008z" fill="#000000" stroke-width="1"/></g></g></svg>