<svg version="1.1" xmlns="http://www.w3.org/2000/svg" xmlns:xlink="http://www.w3.org/1999/xlink" width="68.28756" height="70.25983" viewBox="0,0,68.28756,70.25983"><g transform="translate(-205.85622,-144.87008)"><g data-paper-data="{&quot;isPaintingLayer&quot;:true}" fill-rule="nonzero" stroke="none" stroke-linecap="butt" stroke-linejoin="miter" stroke-miterlimit="10" stroke-dasharray="" stroke-dashoffset="0" style="mix-blend-mode: normal"><path d="M205.85622,215.12992v-70.25983h68.28756v70.25983z" fill="#ffffff" stroke-width="0"/><path d="M231.32992,197.8992h-8.26116c-0.8931,0 -1.67456,-0.33491 -2.34438,-1.00474c-0.66982,-0.66982 -1.00474,-1.45128 -1.00474,-2.34438v-16.74559c0,-2.79093 0.53028,-5.4051 1.59083,-7.84252c1.06055,-2.43742 2.49323,-4.55852 4.29804,-6.36333c1.8048,-1.8048 3.92591,-3.23748 6.36333,-4.29804c2.43742,-1.06055 5.05159,-1.59083 7.84252,-1.59083c2.79093,0 5.4051,0.53028 7.84252,1.59083c2.43742,1.06055 4.55852,2.49323 6.36333,4.29804c1.8048,1.8048 3.23748,3.92591 4.29804,6.36333c1.06055,2.43742 1.59083,5.05159 1.59083,7.84252v16.74559c0,0.8931 -0.33491,1.67456 -1.00474,2.34438c-0.66982,0.66982 -1.45128,1.00474 -2.34438,1.00474h-8.26116v-16.52232h8.26116v-3.57239c0,-4.65155 -1.62805,-8.60538 -4.88413,-11.86146c-3.25609,-3.25609 -7.20991,-4.88413 -11.86146,-4.88413c-4.65155,0 -8.60538,1.62805 -11.86146,4.88413c-3.25609,3.25609 -4.88413,7.20991 -4.88413,11.86146v3.57239h8.26116z" fill="#000000" stroke-width="1"/></g></g></svg>