<svg version="1.1" xmlns="http://www.w3.org/2000/svg" xmlns:xlink="http://www.w3.org/1999/xlink" width="62.8135" height="62.81348" viewBox="0,0,62.8135,62.81348"><g transform="translate(-208.59327,-148.59327)"><g stroke="none" stroke-miterlimit="10"><path d="M271.40675,180c0,17.35223 -14.05452,31.40675 -31.40674,31.40675c-17.35223,0 -31.40674,-14.05452 -31.40674,-31.40674c0,-17.35223 14.05452,-31.40674 31.40675,-31.40674c17.35222,0 31.40675,14.05452 31.40675,31.40675zM228.22248,174.11124c0,6.5169 5.26063,11.77753 11.77753,11.77753c6.5169,0 11.77753,-5.26063 11.77753,-11.77753c0,-6.5169 -5.26063,-11.77753 -11.77753,-11.77753c-6.5169,0 -11.77753,5.26063 -11.77753,11.77753zM259.90404,195.93892c-5.69247,-3.84733 -12.52344,-6.12431 -19.90402,-6.12431c-7.38058,0 -14.21155,2.27699 -19.90402,6.12431c4.71101,5.8495 11.85604,9.57906 19.90402,9.57906c8.04798,0 15.19302,-3.72956 19.90402,-9.57906z" fill="#ffffff" stroke-width="1"/><path d="M240.00002,205.56798c-8.04798,0 -15.24282,-3.78388 -19.95383,-9.63338c5.69247,-3.84732 12.57325,-6.16999 19.95383,-6.16999c7.38058,0 14.26136,2.32266 19.95383,6.16999c-4.711,5.8495 -11.90585,9.63338 -19.95383,9.63338z" fill-opacity="0.50196" fill="#808080" stroke-width="0.5"/><path d="M240.00001,162.28371c6.5169,0 11.82753,5.31063 11.82753,11.82753c0,6.5169 -5.31063,11.82753 -11.82753,11.82753c-6.5169,0 -11.82753,-5.31063 -11.82753,-11.82753c0,-6.5169 5.31063,-11.82753 11.82753,-11.82753z" fill-opacity="0.50196" fill="#808080" stroke-width="0.5"/></g></g></svg>