<svg version="1.1" xmlns="http://www.w3.org/2000/svg" xmlns:xlink="http://www.w3.org/1999/xlink" width="63.05341" height="23.74037" viewBox="0,0,63.05341,23.74037"><g transform="translate(-214.731,-168.12982)"><g stroke="none" stroke-miterlimit="10"><path d="M214.731,191.8702v-23.74037h23.47918v23.74037z" fill="#ffffff" stroke-width="0"/><path d="M225.98944,183.60476h1.03148v-4.05473h-1.03148zM226.45361,178.29982c0.16045,0 0.29512,-0.05068 0.404,-0.15205c0.10888,-0.10137 0.16332,-0.2309 0.16332,-0.38858c0,-0.15768 -0.05444,-0.29284 -0.16332,-0.40547c-0.10888,-0.11263 -0.24354,-0.16895 -0.404,-0.16895c-0.16045,0 -0.29512,0.05632 -0.404,0.16895c-0.10888,0.11263 -0.16332,0.24779 -0.16332,0.40547c0,0.15768 0.05444,0.28721 0.16332,0.38858c0.10888,0.10137 0.24354,0.15205 0.404,0.15205zM226.45361,186.9837c-0.93979,0 -1.82803,-0.17739 -2.66467,-0.53218c-0.83664,-0.35479 -1.56728,-0.8391 -2.1919,-1.45294c-0.62462,-0.61384 -1.11744,-1.33187 -1.47846,-2.15408c-0.36102,-0.8222 -0.54153,-1.70073 -0.54153,-2.63557c0,-0.92357 0.18051,-1.79647 0.54153,-2.61867c0.36102,-0.8222 0.85384,-1.53742 1.47846,-2.14563c0.62462,-0.60821 1.35526,-1.0897 2.1919,-1.44449c0.83664,-0.35479 1.7306,-0.53218 2.68186,-0.53218c0.93979,0 1.82802,0.17739 2.66466,0.53218c0.83664,0.35479 1.56442,0.83628 2.18331,1.44449c0.61889,0.60821 1.10884,1.32343 1.46986,2.14563c0.36102,0.8222 0.54153,1.70073 0.54153,2.63557c0,0.92357 -0.18051,1.79647 -0.54153,2.61868c-0.36102,0.8222 -0.85097,1.54023 -1.46986,2.15408c-0.61889,0.61384 -1.34667,1.09815 -2.18331,1.45294c-0.83664,0.35479 -1.7306,0.53218 -2.68186,0.53218z" fill="#000000" stroke-width="1"/><text transform="translate(241.58983,183.71701) scale(0.31465,0.31465)" font-size="40" xml:space="preserve" fill="#000000" stroke-width="1" font-family="&quot;Noto Sans&quot;, Sans Serif" font-weight="400" text-anchor="start"><tspan x="0" dy="0">About</tspan></text></g></g></svg>